<svg width="16" height="16" viewBox="0 0 16 16" fill="none" xmlns="http://www.w3.org/2000/svg">
<path d="M14 4.5H11V5.5H14V7.5H12V8.5H14V10.5H11V11.5H14C14.2651 11.4996 14.5193 11.3942 14.7067 11.2067C14.8942 11.0193 14.9996 10.7651 15 10.5V5.5C14.9997 5.23488 14.8942 4.9807 14.7068 4.79323C14.5193 4.60576 14.2651 4.5003 14 4.5ZM10 11.5H6V8.5C6.00026 8.23486 6.10571 7.98066 6.29319 7.79319C6.48066 7.60571 6.73486 7.50026 7 7.5H9V5.5H6V4.5H9C9.26512 4.5003 9.5193 4.60576 9.70677 4.79323C9.89424 4.9807 9.9997 5.23488 10 5.5V7.5C9.9997 7.76512 9.89424 8.0193 9.70677 8.20677C9.5193 8.39424 9.26512 8.4997 9 8.5H7V10.5H10V11.5ZM1.25 11.25V10.75H2.75V5.25H1.25V4.75H3.25V10.75H4.75V11.25H1.25Z" fill="black"/>
<path d="M3 5V11V5ZM3.5 4.5H1V5.5H2.5V10.5H1V11.5H5V10.5H3.5V4.5Z" fill="black"/>
</svg>
