<svg width="16" height="16" viewBox="0 0 16 16" fill="none" xmlns="http://www.w3.org/2000/svg">
<path d="M8 2C6.81331 2 5.65328 2.35189 4.66658 3.01118C3.67989 3.67047 2.91085 4.60754 2.45673 5.7039C2.0026 6.80026 1.88378 8.00666 2.11529 9.17054C2.3468 10.3344 2.91825 11.4035 3.75736 12.2426C4.59648 13.0818 5.66558 13.6532 6.82946 13.8847C7.99335 14.1162 9.19975 13.9974 10.2961 13.5433C11.3925 13.0892 12.3295 12.3201 12.9888 11.3334C13.6481 10.3467 14 9.18669 14 8C14 6.4087 13.3679 4.88258 12.2426 3.75736C11.1174 2.63214 9.5913 2 8 2ZM13 7.5H8.5V3.025C9.65208 3.13487 10.7304 3.64099 11.551 4.45705C12.3716 5.2731 12.8837 6.34855 13 7.5ZM7.71 13C6.44369 12.9411 5.24702 12.4034 4.3621 11.4957C3.47719 10.588 2.97009 9.37804 2.94341 8.11064C2.91672 6.84324 3.37245 5.61302 4.21838 4.66887C5.06431 3.72472 6.23729 3.13714 7.5 3.025V7.525C7.5 7.79022 7.60536 8.04457 7.7929 8.23211C7.98043 8.41964 8.23479 8.525 8.5 8.525H13C12.867 9.80975 12.2419 10.9932 11.2558 11.8274C10.2697 12.6616 8.99903 13.0818 7.71 13Z" fill="black"/>
</svg>
