<svg width="16" height="16" viewBox="0 0 16 16" fill="none" xmlns="http://www.w3.org/2000/svg">
<path d="M1 5H2.19286L3.45273 9.03125H3.50635L4.76622 5H5.95908V11H5.02088V7.09473H4.9829L3.79898 10.9707H3.1601L1.97618 7.08008H1.9382V11H1V5Z" fill="#151515"/>
<path d="M7.35582 11H6.31933L7.89864 5H9.14511L10.7222 11H9.6857L8.53975 6.37109H8.50401L7.35582 11ZM7.29104 8.6416H9.73931V9.63184H7.29104V8.6416Z" fill="#151515"/>
<path d="M11.991 5L12.9136 7.04492H12.9494L13.8764 5H14.9687L13.5726 8L15 11H13.8876L12.9494 8.95215H12.9136L11.9754 11H10.8674L12.2993 8L10.8942 5H11.991Z" fill="#151515"/>
</svg>
