<svg width="16" height="16" viewBox="0 0 16 16" fill="none" xmlns="http://www.w3.org/2000/svg">
<path d="M4.5 7C4.00555 7 3.5222 6.85338 3.11108 6.57867C2.69995 6.30397 2.37952 5.91352 2.1903 5.45671C2.00108 4.99989 1.95157 4.49723 2.04804 4.01228C2.1445 3.52732 2.3826 3.08187 2.73223 2.73223C3.08187 2.3826 3.52732 2.1445 4.01228 2.04804C4.49723 1.95157 4.99989 2.00108 5.45671 2.1903C5.91352 2.37952 6.30397 2.69995 6.57867 3.11108C6.85338 3.5222 7 4.00555 7 4.5C6.99927 5.16282 6.73565 5.79828 6.26696 6.26696C5.79828 6.73565 5.16282 6.99927 4.5 7V7ZM4.5 3C4.20333 3 3.91332 3.08797 3.66665 3.2528C3.41997 3.41762 3.22771 3.65189 3.11418 3.92598C3.00065 4.20007 2.97095 4.50167 3.02882 4.79264C3.0867 5.08361 3.22956 5.35088 3.43934 5.56066C3.64912 5.77044 3.91639 5.9133 4.20737 5.97118C4.49834 6.02906 4.79994 5.99935 5.07403 5.88582C5.34812 5.77229 5.58238 5.58003 5.74721 5.33336C5.91203 5.08668 6 4.79667 6 4.5C5.99956 4.10231 5.84139 3.72103 5.56018 3.43982C5.27897 3.15861 4.89769 3.00044 4.5 3V3Z" fill="black"/>
<path d="M1.99985 13.293L13.2927 2.00018L13.9998 2.70729L2.70695 14.0001L1.99985 13.293Z" fill="black"/>
<path d="M11.5 14C11.0055 14 10.5222 13.8534 10.1111 13.5787C9.69995 13.304 9.37952 12.9135 9.1903 12.4567C9.00108 11.9999 8.95157 11.4972 9.04804 11.0123C9.1445 10.5273 9.3826 10.0819 9.73223 9.73223C10.0819 9.3826 10.5273 9.1445 11.0123 9.04804C11.4972 8.95157 11.9999 9.00108 12.4567 9.1903C12.9135 9.37952 13.304 9.69995 13.5787 10.1111C13.8534 10.5222 14 11.0055 14 11.5C13.9993 12.1628 13.7356 12.7983 13.267 13.267C12.7983 13.7356 12.1628 13.9993 11.5 14V14ZM11.5 10C11.2033 10 10.9133 10.088 10.6666 10.2528C10.42 10.4176 10.2277 10.6519 10.1142 10.926C10.0007 11.2001 9.97095 11.5017 10.0288 11.7926C10.0867 12.0836 10.2296 12.3509 10.4393 12.5607C10.6491 12.7704 10.9164 12.9133 11.2074 12.9712C11.4983 13.0291 11.7999 12.9994 12.074 12.8858C12.3481 12.7723 12.5824 12.58 12.7472 12.3334C12.912 12.0867 13 11.7967 13 11.5C12.9996 11.1023 12.8414 10.721 12.5602 10.4398C12.279 10.1586 11.8977 10.0004 11.5 10V10Z" fill="black"/>
</svg>
