<svg width="16" height="16" viewBox="0 0 16 16" fill="none" xmlns="http://www.w3.org/2000/svg">
<path d="M14 10.5H2C1.73487 10.4997 1.48068 10.3943 1.2932 10.2068C1.10572 10.0193 1.00028 9.76513 1 9.5V6.5C1.00028 6.23487 1.10572 5.98068 1.2932 5.7932C1.48068 5.60572 1.73487 5.50028 2 5.5H14C14.2651 5.50028 14.5193 5.60572 14.7068 5.7932C14.8943 5.98068 14.9997 6.23487 15 6.5V9.5C14.9997 9.76513 14.8943 10.0193 14.7068 10.2068C14.5193 10.3943 14.2651 10.4997 14 10.5ZM2 6.5V9.5H14V6.5H2Z" fill="black"/>
<path d="M3 7.5H10V8.5H3V7.5Z" fill="black"/>
</svg>
