<svg width="16" height="16" viewBox="0 0 16 16" fill="none" xmlns="http://www.w3.org/2000/svg">
<path d="M6.5 8.5H3.5C3.23478 8.5 2.98043 8.60536 2.79289 8.79289C2.60536 8.98043 2.5 9.23478 2.5 9.5V12.5C2.5 12.7652 2.60536 13.0196 2.79289 13.2071C2.98043 13.3946 3.23478 13.5 3.5 13.5H6.5C6.76522 13.5 7.01957 13.3946 7.20711 13.2071C7.39464 13.0196 7.5 12.7652 7.5 12.5V9.5C7.5 9.23478 7.39464 8.98043 7.20711 8.79289C7.01957 8.60536 6.76522 8.5 6.5 8.5ZM3.5 12.5V9.5H6.5V12.5H3.5Z" fill="black"/>
<path d="M9.5 10.5V11.5H12.5C12.7652 11.5 13.0196 11.3946 13.2071 11.2071C13.3946 11.0196 13.5 10.7652 13.5 10.5V3.5C13.5 3.23478 13.3946 2.98043 13.2071 2.79289C13.0196 2.60536 12.7652 2.5 12.5 2.5H5.5C5.23478 2.5 4.98043 2.60536 4.79289 2.79289C4.60536 2.98043 4.5 3.23478 4.5 3.5V6.5H5.5V3.5H12.5V10.5" fill="black"/>
</svg>
