<svg width="16" height="16" viewBox="0 0 16 16" fill="none" xmlns="http://www.w3.org/2000/svg">
<path d="M13.5 11.07V4.92999C13.8426 4.84319 14.156 4.66717 14.4084 4.41986C14.6608 4.17254 14.8432 3.86277 14.937 3.52205C15.0308 3.18134 15.0326 2.82187 14.9423 2.48022C14.852 2.13856 14.6728 1.82694 14.4229 1.57706C14.1731 1.32718 13.8614 1.14797 13.5198 1.05767C13.1781 0.967369 12.8186 0.969206 12.4779 1.06299C12.1372 1.15678 11.8274 1.33916 11.5801 1.59158C11.3328 1.844 11.1568 2.15744 11.07 2.49999H4.92999C4.84319 2.15744 4.66717 1.844 4.41986 1.59158C4.17254 1.33916 3.86277 1.15678 3.52205 1.06299C3.18134 0.969206 2.82187 0.967369 2.48022 1.05767C2.13856 1.14797 1.82694 1.32718 1.57706 1.57706C1.32718 1.82694 1.14797 2.13856 1.05767 2.48022C0.967369 2.82187 0.969206 3.18134 1.06299 3.52205C1.15678 3.86277 1.33916 4.17254 1.59158 4.41986C1.844 4.66717 2.15744 4.84319 2.49999 4.92999V11.07C2.15744 11.1568 1.844 11.3328 1.59158 11.5801C1.33916 11.8274 1.15678 12.1372 1.06299 12.4779C0.969206 12.8186 0.967369 13.1781 1.05767 13.5198C1.14797 13.8614 1.32718 14.1731 1.57706 14.4229C1.82694 14.6728 2.13856 14.852 2.48022 14.9423C2.82187 15.0326 3.18134 15.0308 3.52205 14.937C3.86277 14.8432 4.17254 14.6608 4.41986 14.4084C4.66717 14.156 4.84319 13.8426 4.92999 13.5H11.07C11.1568 13.8426 11.3328 14.156 11.5801 14.4084C11.8274 14.6608 12.1372 14.8432 12.4779 14.937C12.8186 15.0308 13.1781 15.0326 13.5198 14.9423C13.8614 14.852 14.1731 14.6728 14.4229 14.4229C14.6728 14.1731 14.852 13.8614 14.9423 13.5198C15.0326 13.1781 15.0308 12.8186 14.937 12.4779C14.8432 12.1372 14.6608 11.8274 14.4084 11.5801C14.156 11.3328 13.8426 11.1568 13.5 11.07ZM13 1.99999C13.1978 1.99999 13.3911 2.05864 13.5556 2.16853C13.72 2.27841 13.8482 2.43459 13.9239 2.61731C13.9996 2.80004 14.0194 3.0011 13.9808 3.19509C13.9422 3.38907 13.847 3.56725 13.7071 3.7071C13.5672 3.84695 13.3891 3.9422 13.1951 3.98078C13.0011 4.01937 12.8 3.99956 12.6173 3.92387C12.4346 3.84819 12.2784 3.72001 12.1685 3.55557C12.0586 3.39112 12 3.19778 12 2.99999C12 2.73478 12.1054 2.48042 12.2929 2.29289C12.4804 2.10535 12.7348 1.99999 13 1.99999ZM1.99999 2.99999C1.99999 2.80221 2.05864 2.60887 2.16853 2.44442C2.27841 2.27998 2.43459 2.1518 2.61731 2.07612C2.80004 2.00043 3.0011 1.98062 3.19509 2.01921C3.38907 2.05779 3.56725 2.15304 3.7071 2.29289C3.84695 2.43274 3.9422 2.61092 3.98078 2.8049C4.01937 2.99889 3.99956 3.19995 3.92387 3.38268C3.84819 3.5654 3.72001 3.72158 3.55557 3.83146C3.39112 3.94135 3.19778 3.99999 2.99999 3.99999C2.73478 3.99999 2.48042 3.89464 2.29289 3.7071C2.10535 3.51957 1.99999 3.26521 1.99999 2.99999ZM2.99999 14C2.80221 14 2.60887 13.9413 2.44442 13.8315C2.27998 13.7216 2.1518 13.5654 2.07612 13.3827C2.00043 13.2 1.98062 12.9989 2.01921 12.8049C2.05779 12.6109 2.15304 12.4327 2.29289 12.2929C2.43274 12.153 2.61092 12.0578 2.8049 12.0192C2.99889 11.9806 3.19995 12.0004 3.38268 12.0761C3.5654 12.1518 3.72158 12.28 3.83146 12.4444C3.94135 12.6089 3.99999 12.8022 3.99999 13C3.99999 13.2652 3.89464 13.5196 3.7071 13.7071C3.51957 13.8946 3.26521 14 2.99999 14ZM11.07 12.5H4.92999C4.84022 12.1561 4.6604 11.8423 4.40905 11.5909C4.15771 11.3396 3.84392 11.1598 3.49999 11.07V4.92999C3.84392 4.84022 4.15771 4.6604 4.40905 4.40905C4.6604 4.15771 4.84022 3.84392 4.92999 3.49999H11.07C11.1598 3.84392 11.3396 4.15771 11.5909 4.40905C11.8423 4.6604 12.1561 4.84022 12.5 4.92999V11.07C12.1561 11.1598 11.8423 11.3396 11.5909 11.5909C11.3396 11.8423 11.1598 12.1561 11.07 12.5ZM13 14C12.8022 14 12.6089 13.9413 12.4444 13.8315C12.28 13.7216 12.1518 13.5654 12.0761 13.3827C12.0004 13.2 11.9806 12.9989 12.0192 12.8049C12.0578 12.6109 12.153 12.4327 12.2929 12.2929C12.4327 12.153 12.6109 12.0578 12.8049 12.0192C12.9989 11.9806 13.2 12.0004 13.3827 12.0761C13.5654 12.1518 13.7216 12.28 13.8315 12.4444C13.9413 12.6089 14 12.8022 14 13C14 13.2652 13.8946 13.5196 13.7071 13.7071C13.5196 13.8946 13.2652 14 13 14Z" fill="black"/>
<path d="M10.5 5.5H5.5V6.5H7.5V11H8.5V6.5H10.5V5.5Z" fill="black"/>
</svg>
